<?xml version="1.0" encoding="UTF-8"?>
<svg id="Layer_1" data-name="Layer 1" xmlns="http://www.w3.org/2000/svg" viewBox="0 0 408.91 601.35">
  <g>
    <path d="M116.67,541.03c-24.06-9.7-35.92-30.22-45.37-52.56,0,24.53-1.58,47.39-8.01,70.24l-7.77,27.59-1.62.59c-.35.13-1.37-1.72-1.29-2.21l2.8-18.02c5.12-32.99,8.55-59.62,7.8-93.42l-6.48-15.59c-5.16-12.41-6.03-25.7-7.87-38.96-12.95-6.15-20.04-17.25-24.24-30.52-4.88-15.39-9.5-30.33-15.69-45.25C4.11,331.31.03,320.01,0,307.29c-.02-9.93,1.91-19.63,7.63-27.42,6.33-8.62,16.91-10.77,25.95-4.48-4.27-23.97-4.98-47.21-3.85-71.29.22-4.64-.15-9.78-.31-14.06-9.25-.15-1.01-21.83,1.17-25.91l7.35-13.7-5.33,2.9c-.6.33-2,.61-2.64.61s-1.51-2.09-1.39-2.76c1.48-8.57,7.22-17.28,14.48-22.95-4.27-.44-7.72,3.33-10.41,1.61-.76-.49-1.01-3.07-.56-3.98,5.29-10.81,16.12-18.24,28.35-19.71-5.37-12.48-4.46-27.12,1.96-38.01,4.08-6.92,3.61,6.87,6.02,11.64,2.83,5.6,6.12,10.16,9.77,15.12-6.3-23.48,2.92-53.43,25.53-63,7.69-3.25-3.75,10.64-2.19,16.26,3.22-5.68,5.84-12.06,12.76-15.16-3.73,13.73-2.17,27.06,6.95,37.83-2.25-27.33,20.64-52.01,44.75-59.8l8.82-.32-9.38,11.41c18.94-10.09,14.62-9.37,34.7-12.28,1-.14,3.22.59,3.56,1.47.51,1.31-1.27,2.6-2.53,3.58-10.65,8.28-17.33,21.49-17.12,35.31,2.88-7.53,5.96-14.7,10.74-21.12,3.37-4.53,8.2-6.27,12.38-9.34,7.02-5.14,13.09-11.34,21.42-14.52,10.11-3.86,20.24-5.67,31.16-5.16,1.35.06,4.69,2.01,3.94,3.01l-4.71,3.79,14.53-4.15c.61-.17,2.6.31,3.14.65,1.08.69-4.96,11.67-4.98,14.74,1.57-1.79,6.38-12.5,10.61-10.98,1.09.39,2.42,2.11,3.26,3.57,10.08,17.49,35.12,13.97,46.14,50.8l-1.42-13.65c11.68,3.15,18.74,18.21,22.74,28.62l2.67-1.18c7.49,9.98,8.68,22.71,4.16,35.02,9.64,5.36,16.54,13.53,20.99,23.13l-1.93,3.87,3.99,10.02-1.46,3.97c1.97,3.76,3.85,8.56,4.7,12.57-.65.76-2.96,1.7-4.18,2.03,3.54,23.35,4.05,41.46,3.1,65.66-.42,10.66-1.16,20.93-.47,31.63,3.94-2.13,7.24-3.75,10.99-2.87,3.3.78,6.75,3.28,8.67,6.56,8.13,13.9,4.05,38.02.13,53.31-4.62,18.05-7.9,35.51-9.4,54.14-.76,9.4-5.32,23.32-12.03,30.17-1.01,14.59-4.93,27.71-9.42,41.35l-9.18,27.89c-3.57,10.85-8.75,20.73-16.26,29.31-3.19,3.65-3.74,7.57-4.19,12.37-1.8,18.97-3.81,37.46-1.04,56.37l3.72,25.41c.12.84-.46,2.91-.98,3.54-1.69,2.03-6.71-1.31-8.43-8.05-6.2-24.21-5.75-45.07-2.53-70.63-7.18,9.33-13.84,18.32-22.49,26.02-8.22,7.31-16.38,14.06-25.47,20.18-1.77.46-4.68,1.02-6.31,2.06-13.02,8.27-26.42,14.35-41.25,18.42-2.73.75-5.55-.02-7.95-.05-19.1-.3-39.04-4.22-56.89-11.84-4.79-2.04-9.67-3.48-14.73-5.24-16.84-5.83-31.57-16.28-42.85-30.61ZM241.44,576.19c8.42-6.05,15.47-12.46,20.06-21.7,5.88-11.84,9.44-23.84,11.6-37.63,3.07,3.55,4.12,7.87,3.73,12.42-1.42,16.71-7.91,31.34-19.07,44.31,3.66-1.06,6.99-3.28,9.99-5.85,17.44-14.97,30.35-37.28,31.52-61.15,6.79,15.84-4.6,38.92-14.22,51.83,4.34-3.02,9.16-6.18,12.94-9.57,13.86-23.18,20.94-45.71,15.73-72.79l1.3-.87c13.92,15.19,4.87,45.01-1.05,60.82,5.67-6.32,10.65-12.46,13.82-19.97,5-11.86,8.34-23.81,9.12-36.75.33-5.53.89-10.22,2.53-15.82,5.92,7.24,3.03,28.28,1.05,37.3,3.73-5.35,8.15-10.37,10.71-16.51,3.75-8.99,5.74-18.48,5.58-28.25l-.42-26.18c5.09-2.81,6.49,22.33,6.49,25.5l4.32-13.62c9.75-30.72,10-59.46,11.09-91.64.3-8.85.72-17.35-.15-25.7-1.77,20.38-3.21,39.39-6.63,58.82-1.58,8.97-6.1,15.99-10.65,23.55-4.78,7.94-10.4,14.32-16.22,21.33-6.09,7.33-10.08,16.36-19.31,21.39.73-3.63,2.41-6.91,4.55-9.67l18.19-23.5c4.56-5.89,8.2-12.33,12.13-18.73,9.61-15.67,11.85-50.12,13.91-68.86l1.53-13.96c.38-3.43-.46-8.28-1.2-11.91-3.3-16.21-5.71-31.87-7.54-48.25-1.03-9.26-3.46-17.55-7.4-26l-7.34-15.76c-.29-.61-.01-2.29.03-2.74.22-2.61,19.38,18.7,21.01,47.68.39,6.9,1.1,13.25,2.04,19.44l2.57-6.52.08-44.32c.03-18.9-.1-37.04-2.14-55.69-.84-7.69-4.89-14.71-3.29-15.5l2.62-1.29c-3.46-3.1-6.5-6.86-8.63-11.94,1.99-.41,3.34-.24,6.8-.13-2.43-4.02-6.03-8.44-9.11-11.74-.85-.91-1.27-4.45-.23-4.57l4.49-.51-11.09-9.32c-3.99,7.49-8.42,13.42-16.77,16.69,12.05,9.9,30.35,26.04,33.04,42.16-8.07-7.94-13.81-16.71-22.13-23.8,6.54,16.64,8.75,37.54,3.8,55.55-3.44-24.79-3.39-43.89-18.22-64.74-2.13-2.99-3.37-6.4-5.28-9.65-2.29-3.9-13.59-9.61-17.86-14.66-6.81,3.02-12.58-1.18-18.86-2.91-4.96-1.36-10.86-1.33-14.07-5.83-5.44,3.58-10.98,5.1-17.05,4.88-2.8,1.34-5.65,5.87-9.67,3.87,16.98-16.96,15.9-42.78,6.35-62.62-1.62-3.35-3.06-6.22-4.45-10.36,6.12,2.02,8.39,7.84,11.33,12.99,9.07,15.93,8.9,34.3.81,50.86,16.2-6.66,24.38-22.08,25.1-38.36.97-22.01-14.25-35.62-14.17-53.01-5.16,10.43-6.17,20.1-2.42,30.86-2.6-.55-4.54-2.22-5.7-4.22-5.97-10.32-6.77-22.29-2.72-33.41-20.56,7.61-32,25.38-33.16,46.98-.83,15.36,5.21,29.76,14.68,41.08.97-11.25-3.98-20.43-7.62-31.65,12.5,6.76,20.4,42.32,6.83,52.21l1.37-18.3c-12.13-2.16-19.06-18.51-21.58-28-3.2-12.04-1.61-24.09,2.61-35.87,4.67-13.02,13.11-23.11,24.2-31.82-15.86,1.11-34.36,9.44-44.65,21.35-4.63,5.36-7.74,11.01-12.28,17.51-.58-3.7.7-6.91,1.71-10.75-14.44,19.53-13.14,46.09.32,65.43,4.54,6.53,9.76,12.09,17.42,15.19-18.01-19.52-24.77-53.21-6.18-75-7.65,22.62-5.68,44.29,6.49,63.56,4.78,7.57,10.74,12.9,18.65,18.71-12.38,4.03-23.66-1.02-33.31-7.37l-10.03-1.19c-12.34,6.56-21.85,5.97-35.23,1.58l-11.82,8.21c-10.18,7.07-22.29,8.83-34.59,6.43-8.1,6.29-14.75,13.44-20.42,21.83-4.22,6.25-6.68,13.19-8.82,20.38-1.66,5.58-.9,10.74.02,16.38,1.6,9.77,2.67,19.2,3.56,29.52-4.97-6.73-4.84-14.62-6.63-22.27-3.14-13.42-3.17-26.1,2.19-39.24-2.11,1.44-3.39,2.76-5.22,4.64-12.12,12.5-24.15,25.98-34.22,40.06-.46.64-1.7,1.13-2.28,1.23s-.93-2.36-.58-3.12c7.1-15.45,21.41-33.49,34.24-45.47,12.04-11.24,12.96-5.07,24.08-20.71-15.9.25-27.09-7.88-35.22-20.81-8.2,2.17-15.88,5.95-22.07,12.25,2.3.43,13.39-3.35,15.14,1.01.23.58-.33,1.95-.85,2.39-6.26,5.35-12.28,10.65-17.38,17.22l7.52-1.32c6.16-1.08,8.37-4.41,8.9-2.11.14.6-.18,2.32-.84,3.1-8.81,10.32-16.46,23.91-21.09,37.45,1.54,1.89,3.79,4.44,3.91,6.51l1.31,24.53c8.21-14.31,18.73-27.92,33.19-38.24-9.33,15.8-25.08,28.98-33.05,46.09-.28,18.25.95,35.7,3.8,53.65,3.85,24.3,9.41,18.45,10.14,34.12.14,3.03,1.36,6.56,2.56,10.37,1.01-2.41,1.33-4.96,1.24-7.9-.4-12.96,2.19-25.2,4.09-37.9,1.09-7.29,2.38-13.55,5.97-20.14,6.45-11.82,13.76-23.18,23.24-33.55-.04,6.58-3.63,11.62-6.74,16.75-7.03,11.61-14.27,20.83-16.8,34.62-1.24,6.75-6.68,44.25-6.67,48.85.03,11.18,2.18,22.41,4.14,33.39,2.42,13.51,12.2,44.57,18.33,55.82,4.89,8.98,14.15,15.06,20.07,23.55s15.29,12.95,24.11,17.72c2.55,1.38,5.67,2.15,5.32,6.02-22.23-3.23-29.28-18.47-43.87-32.66-4.07-3.96-7.54-8.33-9.97-13.52-9.33-19.88-17.05-40.1-20.49-61.93-.3-1.92-.03-3.55-1.25-4.39l-.13,40.35c-.07,21.87,2.82,43.05,7.99,63.98,1.45-9.33-.74-18.35,4.72-26.46l1.16,27.1.96,10.42,1.57-17.65c2.12,1.76,2.33,3.25,2.55,5.57,1.74,18.42,4.72,36.83,12.54,53.58-3.11-16.62-.88-34.92,6.71-48.37.35-.62,1.33-1.44,1.68-1.64s1.2.68,1.1,1.07l-.35,1.47c-2.5,10.45-5.22,20.77-4.35,31.76.96,12.05,4.58,23.24,9.68,34.44,2.66,5.85,9.44,9.74,14.75,13.69-3.61-12.01-9.03-44.88,1.27-53.62-2.04,39.53,6.8,71.69,47.45,85.18-12.91-16.36-21.32-38.83-14-60.06.62,21.48,5.88,40.61,19.94,55.93,6.53,7.11,14.15,12.62,23.86,14.95-7.93-10.94-15.15-23.02-11.85-37.13,3.64,5.38,4.98,11.16,7.28,16.63,5.59,13.28,16.51,22.98,30.1,26.61,8.35,2.24,14.95,1.02,22.03-4.07ZM158.83,72.17c-.5-3.01-.43-5.96,1.44-7.89,4.44,19.51,17.6,35.84,36.62,42.1-10.35-12.7-13.12-26.68-14.87-41.84-.93-8.08-5.77-15.89-2.62-24.51,1.01-8.7,6.25-15.53,11.73-22.92-13.95,3.26-24.8,11.67-33.05,22.47-4.48,5.86-5.6-6.74,4.16-18.85,1.16-1.44,1.96-2.88,2.31-4.25-10.66,6.43-20.1,13.24-27.33,22.83-6.08,8.06-14.92,24.72-13.04,35.36l4.79,5.63c-.96-7.7-2.6-24.92,5.01-28.75-1.11,11.73-1.06,21.97,3.73,32.04,8.94,18.81,28.85,29.86,49.34,25.63-15.23-8.08-25.46-20.42-28.21-37.04ZM318.94,115.67l17.66,11.45c5.35-.63,9.17-6.06,12.12-10.23,8.92-12.64,9.66-25.63,5.04-39.47.87,11.5,1.45,23.91-7.74,32.69,5.24-24.04,1.6-33.46-9.54-54.04.85,7.58,1.43,15.29-1.4,22.73-.27.72-1.79,2.3-2.4,1.89-3.07-2.08-4.36-21.59-20.26-39.45-5.98-6.72-18.49-11.88-27.23-19.57,2.04,6.56,4.87,11.86,7.72,17.7,11.59,23.78,9.99,48.52-10.34,67.45,12.64,5.16,25.19-5.22,29.01-17.81,3.33-10.99,1.43-21.88-2.4-33.41,1.04.01,3.01,1.31,3.6,2.4,9.38,17.35,11.75,42.79-8.32,53.62,7.81.73,15.04-3.08,20.51-9.31,4.3-4.89,5.95-11.11,8.78-17.73,3.54,12.5-3.94,24.69-14.79,31.07ZM107.46,93.61c10.94,12.76,27.05,18.59,43.32,16.16-8.14-5.42-13.71-11.66-17.65-19.94-1.02-2.14-2.79-3.65-5.3-3.97-14.29-8.14-21.97-23.29-21.18-40.22-4.87,8.89-5.29,18.24-6.16,29-5.63-11.65-3.31-23.87,1.07-36.13-18.89,15.86-23.15,43.18-11.42,64.14,10.95,19.58,33.76,24.73,52.69,13.17-19.35.66-37.06-11.18-43.78-29.9-.42-1.18.03-3.36.82-4.76,2.84,4.46,4.27,8.55,7.61,12.45ZM80.96,105.41c-8.6-5.96-13.55-14.49-17.19-23.65-3.05,22.07,12.85,41.79,35.32,42.4-7.42-5.14-13.77-10.49-18.13-18.76ZM384.36,335.34c-1.29,9.75-.72,20.18-.59,30.31l.28,21.65c5.09-17.5,4.62-33.92,9.21-52.14l5.43-21.57c3.32-13.2,4.41-26.49,1.1-39.85-.71-2.86-3.78-7.29-6.95-7.18-6.16.21-11.28,6.08-12.71,11.91-2.01,8.14-2.23,16.14-1.46,24.62,3.22-8.97,6.22-17.8,13.26-24.52.87-.83,4.35-1.3,4.69-.2,1.14,3.71-6.42,10.93-8.24,17.48,3.21,10.94,4.37,21.79,1.31,33.1-2.9-4.42-.76-18.07-4.11-25.68-8.6,14.01,1.63,10.57-1.21,32.07ZM38.08,373.3c-18.49-17.33-20.88-48.27-10.98-69.39-1.5-3.36-6.77-10.39-11.78-7.44-.75-.71-.42-3.75.38-4.89,3.08-4.36,10.62.6,14.27,4.66,8.6,9.6,14.22,20.95,18.84,33.32-.28-29.14,1.32-19.25-10.74-39.01-3.06-5.02-7.9-9.64-13.7-10.95-4.32-.97-9.45,2.25-11.55,5.99-9.21,16.35-4.96,35.07,2.16,51.52l17.96,49.95c3.03,8.44,7.85,15.82,14.59,21.58l-.8-34.8.13-5.91c-11.68-10.99-11.65-24.87-1.58-36.98-6.09-7.63-8.65-14.8-15.45-24.05-4.04,12.67-5.3,25.3-3.12,38.29,2,11.92,10.51,18.84,11.37,28.1ZM47.66,359.22c1.07-9.6,1.4-18.23,1.12-27.06l-4.03,11.17c-2.05,5.69-1.11,11.32,2.91,15.89Z"/>
    <path d="M83.09,142.4c-13.23,6.91-24.48,14.96-35.95,24.8-1.07-12.11,31.79-33.38,42.29-29.68-2.41,2.26-3.86,3.58-6.34,4.87Z"/>
  </g>
  <g>
    <path d="M170.89,479.53c9.54,8.62,22.94,4.97,32.63,7.86-8.66,6.32-18.69,5.05-27.72,2.12-7.75-2.51-13.02-8.38-13.81-16.6l-.92-9.44c-14.86,2.02-21.01,15.58-25.88,27.22-3.68,8.8-5.16,17.56-5.62,27.46-2.86-8.03-2.6-16.22-1.18-24.83,3.6-21.76,17.7-35.71,20.53-42.9,3.44-8.75,7.24-30.29,22.54-32.63-1.63,2.34-3.09,3.83-4.62,5.34,9.95,3.03,44.03-5.19,48.21-4.69l17.03,2.07,13.88-3.07c10.24-2.26,33.52,4.52,43.57-1.33l-2.62-3.99c8.4,1.52,12.73,7.79,15.88,14.73,1.88,4.15,1.53,8.12,1.91,12.27,1.19,13-.73,26.81-10.21,37.37-1.13-10.95,7.75-29.84,6.06-41.09-.82-5.44-4.54-9.93-7.46-14.77l-3.4,1.81c-13.69,2.16-37.71-3.22-48.02.72-9.26,3.54-16.91.51-25.99.12-14.47-.63-35.54,6.98-48.26,3.92l-1.09-4.13c-12.65,16.2-3.36,20.9-16.87,37.65l6.49-1.96c2.11-.64,5.25-.22,7.21,1.19,5.59,4,1.87,14.27,7.73,19.57Z"/>
    <path d="M255.51,478.94c7.72,5.91,10.93,9.34,23.61,3.3,3.84-1.83,7.57-3.43,11.69-3.32-.39,5.36-4.42,6.97-7.94,8.98-7.29,4.17-15.17,4.88-23.8,1.57-6.33-2.43-11.75-8.76-15.03-16.2-3.02-6.85-1.3-13.99,6.42-17.08,8.99-3.6,7.76-14.82,10.15-9.35,4.29,9.79-10.39,12.46-13.4,15.97.69,6.06,3.5,12.47,8.29,16.14Z"/>
    <path d="M246.5,554.64c-1.76,5.51-10.2,25.03-17.75,20.83,7.42-10.98,13.49-22.08,16.27-35.02,2.21-10.27.09-20.14.03-31.33,7.74,14.32,6.1,31.03,1.45,45.53Z"/>
    <path d="M247.86,444.26c-6.06,1.08-42.56,4.71-43.48-5.09,10.78.76,20.72,2.16,31.3.6l21.72-3.2c.62-.09,2.05.3,2.55.53.62.29-.37,2.68-.99,3.05-2.9,1.73-7.44,3.45-11.1,4.11Z"/>
    <path d="M212.77,503.54c-9.53,24.46-6.75,40.55.96,65.79-6.82-6.41-8.22-15.32-10.56-24.36-5.33-20.58,7.36-45.88,8.98-42.65l.61,1.23Z"/>
    <path d="M207.81,490.03c-2.65-.9-1.11-3.59-.14-5.06,4.45-6.77,8.07-13.75,9.34-22.21-6.49-.1-20.42-6.52-17.03-14.81,7.14,7.72,11.32,8.81,20.73,12.41,2.01,10.81-3.18,22.92-12.9,29.66Z"/>
    <path d="M226.13,505.72c-1.99,9.61-.89,18.73-1.93,29.45-4.56-12.9-4.29-27.2-.41-40.78l2.78-9.72c.12-.42,1.51-1.3,1.86-1.53.53-.36,2.04,1.65,1.89,2.37l-4.18,20.22Z"/>
    <path d="M174.17,520.03c-2.73,8.41-1.05,17.18-1.38,26.77-8.05-10.34-4.7-40.19,8.02-47.21l-6.63,20.45Z"/>
    <g>
      <path d="M194.85,260.68c-1.36,2.68-7.38,3.34-10.89,2.88-15.24-2.02-30.1-5.97-45.43-5.47-11.62.38-21.69,8.35-31.37,13.3-2.27,1.16-3.81,2.6-6.25.5,21.82-30.22,39.51-28.15,73.7-27.33,6.3.15,11.36,4.02,16.14,7.64l-2.65-5.5c6.04,3.28,11.01,7.87,10.39,15.48l-3.87-4.76c-.04-.48.2,2.56.23,3.24Z"/>
      <path d="M303.2,251.94c-6.01,1.8-42.24,12.25-43.02,2.92l-1.97,2.72c-1.36-4.2-1.69-7.85,1.47-10.46l-1.49,6.05c3.65-4.49,5.05-8.99,10.11-11.97l-3.93,8.03c3.63-2.59,6.81-7.2,11.42-8.42,8.11-2.15,16.73-3.15,25.07-2.91l18.27.52c11.02.31,27.42,15.49,28.37,26.06-17.3-9.88-23.99-18.63-44.29-12.55Z"/>
      <path d="M161.21,296.32c-3.5,1.29-8.8.6-12.15-.32-5.03-1.37-7.37-4.67-7.72-10.19-3.8.86-7.53,2.72-10.3,4.99l.44,2.43c.11.61-2.25.12-3-.24l-7.57,2.45c-.37-1.58.43-3.81,1.74-4.88,10.11-8.28,22.35-13.21,35.52-13.82,9.94-.46,17.57,5.44,26.58,8.35l6.99,2.26c.67.22,1.68,1.73,1.89,2.38s-.88,1.78-1.51,2.06-2.51-.53-2.83-1.32c-.88-2.2-3.81-2.34-6.04-2.78-5.02-.98-9.49-4.94-14.76-4.73-.22,5.43-1.53,11.24-7.29,13.37ZM161.32,286.58c.85-.06,2.71-2.47,2.11-3.03-2.83-2.65-5.97-.25-6.27.47-.23.55.24,1.57.68,1.98s2.33.66,3.48.58Z"/>
      <path d="M302.56,290.3c-2.07,1.48-6.49,1.4-9.18,1.36-7.51-.11-12.57-4.99-13.08-12.72l-11,5.88c-3.57.66-5.83.23-8.07,3.98-3.05-6.88,1.83-3.12,12.29-10.76,15.13-11.05,47.4-7.3,58.61,9.84-4.74,2.32-4.91-4.18-12.73-1.02l.25-3.85c-3.53-1.87-7.59-3.68-11.41-5.08-.5,5.06-1.48,9.4-5.67,12.39ZM302.25,277.56c-.98-.87-4.28-1.1-4.94-.06-.55.88-.16,3.85.84,3.76l3.63-.33c.84-.08,1.1-2.81.47-3.37Z"/>
      <path d="M319.12,428.87c1.22,6.9,6.18,14.04,1.99,22.32-4.46-10.88-7.28-21.28-10.45-31.83l4.04,1.6c-5.63-11.34-15.2-21.3-26.5-27.67-2.58.5-5.82.34-8.46-1.1l-27.48-14.96c8.13-4.11,27.85,10.21,34.23,13.7,14.43-2.57,37.1,24.9,35.13,40.3l-2.51-2.35Z"/>
      <path d="M145.73,416.96c-9.92,15.75-6.43,24.43-13.4,38.19-2.39-9.18.5-17.27,2.46-25.67,3.91-16.68,15.3-29.14,31.52-34.14,2.77-.85,5.19-4.02,8.67-1.15-11.51,12.62-19.02,6.52-29.25,22.78Z"/>
      <path d="M179.49,276.53c-8.49-5.51-21.84-2.57-31.95-.49-11.17,2.3-20.42,7.3-29.88,14.28,3.36-6.59,9.48-9.78,15.69-12.52,12.03-5.31,25.24-9.07,38.62-7.43,8.15,1,14.91,6.47,20.16,12.76-5.36-.65-8.61-3.98-12.65-6.59Z"/>
      <path d="M238.42,412.5c-10.77,5.7-12.48-5.8-28.15.22-8.94,3.44-17.46,7.63-27.36,8.72,9.13-4.3,18.33-7.62,27.88-11.13,5.21-1.92,10.42-2.94,15.38.09,11.29,3.95,13.78-5.78,24.78-2.46,7.34,2.22,14.05,4.58,21,7.44-13.25,1.09-21.4-9.3-33.54-2.88Z"/>
      <path d="M326.67,277.75c-10.4-9.08-40.37-12.64-54.91-3.13-2.37,1.55-5.52,3.18-8.28,3.94,4.62-6.58,12.23-10.21,19.6-11.66,15.31-3.01,44.88.9,51.87,18.07l-8.28-7.23Z"/>
      <path d="M244.62,366.49c-4.9,7.79-14.63,9.66-21.61,3.99,20.12-.84,10.99.39,25.47-12.5,2.32-2.06,7.79-2.68,9.19.34,1.68,3.62-3.13,6.45-6.63,5.72-2.02-.42-5.18.48-6.42,2.45Z"/>
      <path d="M178.01,397.65c-.52.33-2.15.6-2.73.61-7.86.16,26.34-24.69,34.36-20.91l-31.62,20.3Z"/>
      <path d="M199.5,367.06l7.02,3.15c-5.72,1.84-11.55-1.35-14.79-5.08-4.01-4.62-4.67-10.86-2.56-16.41s4.19-11.99,11.19-12.47c-3.8,5.09-7.96,9.55-9.12,15.82-1.18,6.36,2.29,12.3,8.27,14.99Z"/>
      <path d="M255.87,263.89c-12.53,23.55-8.16,24.75-8.71,47.98-5.31-12.12-4.32-40.65,8.71-47.98Z"/>
      <path d="M223.97,365.45c-10.02-3.35-21.45,1.74-22.39-4.76,5.47-7.05,18.63-2.49,22.39,4.76Z"/>
      <path d="M254.65,370.31c4.94-5.64,13.04-8,9.4-19.38l-3.08-9.64c4.01,2.73,5.64,6.56,6.68,10.73,2.16,8.63-3.32,17.78-13.01,18.3Z"/>
      <path d="M181.84,301.95c-8.87,7.64-19.94,11.03-30.72,11.35l30.72-11.35Z"/>
      <path d="M243.33,355.32c10.05-10.97,6.24-11.07,6.72-23.68,6.03,8.23,2.75,21.02-6.72,23.68Z"/>
      <path d="M297.26,304.98c-10.14-.37-20.76-2.7-28.52-10.05l28.52,10.05Z"/>
    </g>
  </g>
</svg>